<?xml version="1.0" encoding="UTF-8"?>
<svg width="18px" height="16px" viewBox="0 0 18 16" version="1.1" xmlns="http://www.w3.org/2000/svg" xmlns:xlink="http://www.w3.org/1999/xlink">
    <!-- Generator: Sketch 51.3 (57544) - http://www.bohemiancoding.com/sketch -->
    <title>ion-eye-disabled - Ionicons</title>
    <desc>Created with Sketch.</desc>
    <defs></defs>
    <g id="Page-1" stroke="none" stroke-width="1" fill="none" fill-rule="evenodd">
        <g id="Sign-up" transform="translate(-567.000000, -627.000000)" fill="#9B9B9B">
            <path d="M580.4375,631.171875 C581.661464,631.979171 583.015618,633.281241 584.5,635.078125 C583.874997,635.755212 583.432293,636.223957 583.171875,636.484375 C582.911457,636.744793 582.429691,637.180987 581.726562,637.792969 C581.023434,638.404951 580.417971,638.854165 579.910156,639.140625 C579.402341,639.427085 578.770837,639.70052 578.015625,639.960938 C577.260413,640.221355 576.505212,640.351562 575.75,640.351562 C574.44791,640.351562 573.250005,640.065107 572.15625,639.492188 L569.148438,642.5 L568.25,641.601562 L571.023438,638.828125 C570.242184,638.281247 568.901051,637.005218 567,635 C568.666675,633.177074 570.164056,631.829431 571.492188,630.957031 C572.820319,630.084631 574.239576,629.648438 575.75,629.648438 C576.947923,629.648438 578.145827,629.947914 579.34375,630.546875 L582.351562,627.5 L583.25,628.398438 L580.4375,631.171875 Z M572.234375,635 C572.234375,635.703129 572.442706,636.367184 572.859375,636.992188 L573.914062,635.9375 C573.783854,635.703124 573.71875,635.390627 573.71875,635 C573.71875,634.42708 573.914061,633.938804 574.304688,633.535156 C574.695314,633.131508 575.17708,632.929688 575.75,632.929688 L576.0625,632.929688 C575.854166,633.190105 575.75,633.46354 575.75,633.75 C575.75,633.880209 575.763021,633.984375 575.789062,634.0625 L577.78125,632.109375 C577.182289,631.666664 576.505212,631.445312 575.75,631.445312 C574.786454,631.445312 573.959639,631.796871 573.269531,632.5 C572.579424,633.203129 572.234375,634.036454 572.234375,635 Z M575.75,638.554688 C576.713546,638.554688 577.540361,638.203129 578.230469,637.5 C578.920576,636.796871 579.265625,635.963546 579.265625,635 C579.265625,634.27083 579.057294,633.593753 578.640625,632.96875 L576.6875,634.960938 C576.765625,634.986979 576.869791,635 577,635 C577.260418,635 577.520832,634.908855 577.78125,634.726562 L577.78125,635 C577.78125,635.57292 577.585939,636.061196 577.195312,636.464844 C576.804686,636.868492 576.32292,637.070312 575.75,637.070312 C575.385415,637.070312 575.072918,636.992188 574.8125,636.835938 L573.71875,637.890625 C574.317711,638.333336 574.994788,638.554688 575.75,638.554688 Z" id="ion-eye-disabled---Ionicons"></path>
        </g>
    </g>
</svg>