<?xml version="1.0" encoding="UTF-8"?>
<svg width="18px" height="10px" viewBox="0 0 18 10" version="1.1" xmlns="http://www.w3.org/2000/svg" xmlns:xlink="http://www.w3.org/1999/xlink">
    <!-- Generator: Sketch 51.3 (57544) - http://www.bohemiancoding.com/sketch -->
    <title></title>
    <desc>Created with Sketch.</desc>
    <defs></defs>
    <g id="Page-1" stroke="none" stroke-width="1" fill="none" fill-rule="evenodd">
        <g id="Sign-up---passwords-don't-match" transform="translate(-567.000000, -755.000000)" fill="#9B9B9B">
            <path d="M575.75,755 C578.614598,755 581.531235,756.679671 584.5,760.039062 C583.796871,760.742191 583.347657,761.184895 583.152344,761.367188 C582.95703,761.54948 582.481775,761.953122 581.726562,762.578125 C580.97135,763.203128 580.359377,763.632811 579.890625,763.867188 C579.421873,764.101564 578.803389,764.348957 578.035156,764.609375 C577.266923,764.869793 576.505212,765 575.75,765 C574.812495,765 573.953129,764.882814 573.171875,764.648438 C572.390621,764.414061 571.609379,764.01042 570.828125,763.4375 C570.046871,762.86458 569.434898,762.376304 568.992188,761.972656 C568.549477,761.569008 567.885421,760.911463 567,760 C568.692717,758.307283 570.196608,757.050785 571.511719,756.230469 C572.826829,755.410152 574.239576,755 575.75,755 Z M573.25,762.5 C573.953129,763.203129 574.786454,763.554688 575.75,763.554688 C576.713546,763.554688 577.540361,763.203129 578.230469,762.5 C578.920576,761.796871 579.265625,760.963546 579.265625,760 C579.265625,759.036454 578.920576,758.203129 578.230469,757.5 C577.540361,756.796871 576.713546,756.445312 575.75,756.445312 C574.786454,756.445312 573.959639,756.796871 573.269531,757.5 C572.579424,758.203129 572.234375,759.036454 572.234375,760 C572.234375,760.963546 572.572913,761.796871 573.25,762.5 Z M575.75,758.75 C575.75,759.114585 575.867186,759.414061 576.101562,759.648438 C576.335939,759.882814 576.635415,760 577,760 C577.260418,760 577.520832,759.908855 577.78125,759.726562 L577.78125,760 C577.78125,760.57292 577.585939,761.061196 577.195312,761.464844 C576.804686,761.868492 576.32292,762.070312 575.75,762.070312 C575.17708,762.070312 574.695314,761.868492 574.304688,761.464844 C573.914061,761.061196 573.71875,760.57292 573.71875,760 C573.71875,759.42708 573.914061,758.938804 574.304688,758.535156 C574.695314,758.131508 575.17708,757.929688 575.75,757.929688 L576.0625,757.929688 C575.854166,758.190105 575.75,758.46354 575.75,758.75 Z" id=""></path>
        </g>
    </g>
</svg>